# xmcd CD database file
#
# Track frame offsets:
#	150
#	13430
#	32580
#	48885
#	62318
#	82545
#	97866
#	109606
#	124161
#	137848
#	151692
#
# Disc length: 2214 seconds
#
# Revision: 0
# Processed by: cddbd v1.5.1PL0 Copyright (c) Steve Scherf et al.
# Submitted via: CDex 1.51
#
DISCID=7508a40b
DTITLE=Gary Allan - It Would Be You
DYEAR=1998
DGENRE=Country
TTITLE0=It Would Be You
TTITLE1=No Man in His Wrong Heart
TTITLE2=Don't Leave Her Lonely Too Lon
TTITLE3=I'll Take Today
TTITLE4=I Ain't Runnin' Yet
TTITLE5=She Loves Me, She Don't Love Y
TTITLE6=I've Got A Quarter In My Pocket
TTITLE7=Baby I Will
TTITLE8=Red Lips Blue Eyes Little Whit
TTITLE9=It took us all night long to s
TTITLE10=Forgotten, But Not Gone
EXTD=YEAR: 1998
EXTT0=
EXTT1=
EXTT2=
EXTT3=
EXTT4=
EXTT5=
EXTT6=
EXTT7=
EXTT8=
EXTT9=
EXTT10=
PLAYORDER=
